<svg xmlns="http://www.w3.org/2000/svg" xmlns:xlink="http://www.w3.org/1999/xlink" xmlns:inkscape="http://www.inkscape.org/namespaces/inkscape" version="1.1" width="841.89" height="595.276" viewBox="0 0 841.89 595.276">
<defs>
<clipPath id="clip_0">
<path transform="matrix(1,0,0,-1,0,595.276)" d="M0 595.276H841.89V0H0Z"/>
</clipPath>
</defs>
<g inkscape:groupmode="layer" inkscape:label="Calque 1">
<g clip-path="url(#clip_0)">
<path transform="matrix(1,0,0,-1,264.951,157.1507)" d="M0 0C-35.165-11.718-70.152-26.904-101.234-47.617L-131.556 39.543H-133.074L-214.096-192.545H-157.342V-184.763C-166.506-184.763-172.719-183.957-175.925-182.33-179.109-180.723-180.716-177.51-180.753-172.766H-180.713C-180.666-172.039-180.535-170.988-180.382-169.952-179.594-166.279-177.569-159.807-174.313-150.512L-170.35-138.953C-155.414-107.266-131.836-81.7-104.015-60.954-102.678-64.936-101.325-68.909-99.998-72.894-90.475-101.385-81.188-129.954-72.592-158.865-70.575-165.659-70.929-173.542-76.029-178.204-78.753-180.696-82.073-181.64-85.277-182.797L-92.705-184.74V-192.545H-50.811L-98.092-56.652C-67.386-34.945-32.117-18.738 2.153-6.403 96.416 26.419 196.913 36.431 296.107 39.543 196.564 38.688 95.308 30.827 0 0M-123.725-2.979C-122.948-5.233-122.172-7.485-121.398-9.735-116.608-23.692-111.861-37.672-107.137-51.659-124.798-64.039-141.069-78.303-155.234-94.863Z"/>
<path transform="matrix(1,0,0,-1,222.9696,223.0448)" d="M0 0V-126.647H40.109V-122.375H34.097C28.416-122.375 24.57-121.638 22.555-120.16 20.555-118.669 19.319-116.405 18.854-113.352 18.382-110.279 18.157-103.807 18.157-93.931V-66.041H23.163C26.557-66.041 29.057-66.612 30.659-67.762 32.278-68.894 35.202-72.076 39.474-77.299 43.731-82.52 47.83-87.974 51.792-93.647 64.138-111.443 73.327-122.447 79.314-126.647H113.132 113.137V-122.375C112.667-122.363 112.197-122.33 111.728-122.301 104.902-121.866 98.955-119.777 93.862-116.071 88.421-112.128 80.946-103.755 71.438-90.967 59.755-75.21 51.293-66.071 46.042-63.542 57.782-62.111 66.682-58.507 72.741-52.702 78.787-46.895 81.808-39.882 81.808-31.667 81.808-24.629 79.497-18.565 74.872-13.5 70.232-8.435 64.168-4.786 56.66-2.571 49.152-.344 39.402 .761 27.42 .761 20.61 .761 11.473 .509 0 0M18.157-4.329C21.121-4.081 23.747-3.96 26.033-3.96 40.866-3.96 50.485-6.615 54.902-11.925 59.317-17.233 61.527-24.315 61.527-33.143 61.527-38.211 60.877-42.468 59.572-45.931 58.279-49.394 56.504-52.19 54.247-54.321 51.99-56.45 49.041-58.064 45.405-59.184 41.761-60.294 37.459-60.976 32.52-61.218 27.578-61.471 22.797-61.653 18.157-61.784Z" fill="#f15b2a"/>
<path transform="matrix(1,0,0,-1,500.0814,222.71619)" d="M0 0V-4.222C4.979-4.222 9.273-4.867 12.83-6.146 16.385-7.431 18.746-9.166 19.898-11.362 21.05-13.552 21.616-17.413 21.616-22.891V-97.138L-53.557 0H-72.15V-126.061H-45.219V-121.843C-51.978-121.843-57.036-120.909-60.39-119.015-63.772-117.127-65.819-115.048-66.523-112.791-67.248-110.519-67.621-105.824-67.621-98.685V-10.632L22.179-126.978H26.204L26.244 0Z" fill="#f15b2a"/>
<path transform="matrix(1,0,0,-1,343.6173,222.71619)" d="M0 0V-79.845-88.396-126.978H75.858 75.868V-95.326H72.968C70.978-104.19 68.518-110.474 65.626-114.187 62.719-117.896 59.263-120.244 55.28-121.218 51.281-122.172 44.851-122.659 35.988-122.659H18.377V-88.396-79.845-62.091H32.34C37.763-62.091 41.612-62.442 43.894-63.171 46.183-63.891 47.899-65.451 49.09-67.856 50.279-70.256 50.868-74.98 50.868-82.028H55.28V-38.582H50.868C50.868-44.831 50.475-49.034 49.694-51.179 48.915-53.328 47.293-54.949 44.833-56 42.374-57.053 38.038-57.599 31.865-57.599H18.377V-4.316H35.988C44.851-4.316 51.281-4.803 55.28-5.76 59.263-6.734 62.719-9.077 65.626-12.79 68.518-16.499 70.978-22.788 72.968-31.652H75.868V-.002 0Z" fill="#f15b2a"/>
<path transform="matrix(1,0,0,-1,596.1286,219.91391)" d="M0 0-62.585-129.781H-30.115V-125.418L-35.87-124.328C-38.354-123.685-40.93-123.154-43.041-121.759-46.997-119.156-47.268-114.744-45.704-110.949-39.667-96.287-33.17-81.791-26.51-67.334H14.64L33.148-106.279C36.478-113.124 38.142-117.243 38.142-118.632 38.142-121.334 36.896-123.159 34.396-124.068 31.909-124.973 27.096-125.428 19.989-125.428V-129.781H63.98 63.987L1.182 0ZM-7.874-27.556C-7.27-26.298-6.67-25.037-6.066-23.776L12.318-62.452H-24.268C-18.869-50.799-13.401-39.168-7.874-27.556" fill="#f15b2a"/>
<path transform="matrix(1,0,0,-1,73.7778,398.79719)" d="M0 0 6.193-4.069C3.466-7.71-.868-9.96-6.064-9.96-15.028-9.96-21.482-3.248-21.482 5.762-21.482 14.726-15.028 21.438-6.064 21.438-.868 21.438 3.466 19.188 6.193 15.594L0 11.522C-1.3 13.169-3.337 14.294-6.064 14.294-11.349 14.294-14.034 10.051-14.034 5.762-14.034 1.473-11.349-2.813-6.064-2.813-3.337-2.813-1.3-1.688 0 0"/>
<path transform="matrix(1,0,0,-1,109.832,401.2201)" d="M0 0V-6.976H-18.753V23.344H-11.302V0Z"/>
<path transform="matrix(1,0,0,-1,146.4908,377.8776)" d="M0 0V-18.536C0-26.852-4.722-30.879-12.647-30.879-20.573-30.879-25.336-26.852-25.336-18.536V0H-17.888V-17.799C-17.888-21.831-15.982-23.734-12.647-23.734-9.357-23.734-7.406-21.831-7.406-17.799V0Z"/>
<path transform="matrix(1,0,0,-1,175.3985,398.6672)" d="M0 0C0 2.081-1.387 3.29-4.027 3.29H-8.358V-3.681H-4.027C-1.256-3.681 0-2.077 0 0M-8.358 14.941V8.358H-5.154C-2.47 8.358-1.169 9.7-1.169 11.651-1.169 13.858-2.598 14.941-5.154 14.941ZM7.537-.304C7.537-5.673 4.289-9.53-3.639-9.53H-15.809V20.79H-4.764C2.556 20.79 6.282 17.584 6.282 12.432 6.282 9.616 5.11 7.71 3.031 6.497V6.366C5.933 5.11 7.537 2.86 7.537-.304"/>
<path transform="matrix(1,0,0,-1,0,595.276)" d="M208.594 196.87H194.691V203.06299H208.594Z"/>
<path transform="matrix(1,0,0,-1,243.9943,399.3156)" d="M0 0C0-4.937-4.289-9.441-11.866-9.441-17.455-9.441-22.738-7.275-24.08-1.646L-17.238 .477C-16.847-1.256-15.245-3.117-11.952-3.117-9.399-3.117-7.493-2.124-7.493-.131-7.493 2.124-10.482 2.47-13.903 3.337-19.967 4.806-22.696 7.621-22.696 12.689-22.696 18.494-17.888 21.957-11.564 21.957-6.368 21.957-1.948 19.186-.779 14.378L-7.624 12.689C-8.012 14.162-9.268 15.633-11.91 15.633-14.076 15.633-15.505 14.467-15.505 12.734-15.505 10.351-11.91 9.787-9.572 9.137-2.166 7.06 0 4.722 0 0"/>
<path transform="matrix(1,0,0,-1,271.1685,388.7468)" d="M0 0C0 2.339-1.644 3.854-4.504 3.854H-8.403V-3.859H-4.504C-1.819-3.859 0-2.645 0 0M7.537 0C7.537-7.149 2.079-10.484-4.504-10.484H-8.403V-19.45H-15.809V10.87H-4.504C3.031 10.87 7.537 6.539 7.537 0"/>
<path transform="matrix(1,0,0,-1,312.7646,393.0348)" d="M0 0C0 4.289-2.685 8.531-7.967 8.531-13.253 8.531-15.937 4.289-15.937 0-15.937-4.289-13.253-8.576-7.967-8.576-2.685-8.576 0-4.289 0 0M7.451 0C7.451-9.011 .996-15.722-7.967-15.722-16.934-15.722-23.386-9.011-23.386 0-23.386 8.964-16.934 15.675-7.967 15.675 .996 15.675 7.451 8.964 7.451 0"/>
<path transform="matrix(1,0,0,-1,339.6427,391.8218)" d="M0 0H4.245C6.41 0 8.403 .865 8.403 3.463 8.403 5.718 6.712 6.929 4.245 6.929H0ZM9.787-16.375 4.677-6.24H4.245 0V-16.375H-7.406V13.945H4.245C11.952 13.945 15.895 9.525 15.895 3.463 15.895-.176 14.118-2.902 11.218-4.549L17.67-16.375Z"/>
<path transform="matrix(1,0,0,-1,388.084,384.8923)" d="M0 0H-7.105V-23.304H-14.511V0H-21.613V7.013H0Z"/>
<path transform="matrix(1,0,0,-1,421.8426,385.67469)" d="M0 0C0-1.125 .65-2.339 1.688-3.594 3.421-3.421 5.545-2.166 5.545 .131 5.545 1.735 4.549 2.949 2.858 2.949 1.083 2.949 0 1.735 0 0M2.168-17.626C3.594-17.626 5.026-17.28 6.282-16.585 4.072-14.813 1.345-12.647-.996-10.262-2.121-10.956-2.944-12.126-2.944-13.683-2.944-16.068-.821-17.626 2.168-17.626M13.384-22.521 10.872-20.397C8.316-22.13 5.154-23.082 1.473-23.082-4.806-23.082-10.047-20.006-10.047-14.462-10.047-10.697-7.624-7.881-4.418-6.324-5.846-4.242-6.798-2.119-6.798 0-6.798 5.026-3.204 8.316 2.858 8.316 8.922 8.316 12.346 5.026 12.346 .868 12.346-3.073 9.399-6.062 5.112-7.144 6.843-8.704 8.749-10.351 10.395-11.91 10.872-10.783 11.263-9.572 11.436-8.141L17.238-9.223C16.892-11.821 16.068-14.118 14.899-16.024 18.278-19.013 22.392-22.521 22.392-22.521Z"/>
<path transform="matrix(1,0,0,-1,487.2664,401.2201)" d="M0 0V-6.976H-19.055V23.344H-.391V16.328H-11.651V11.648H-1.775V5.021H-11.651V0Z"/>
<path transform="matrix(1,0,0,-1,527.8663,377.8776)" d="M0 0-10.87-30.317H-19.663L-30.533 0H-22.783L-15.245-23.907-7.752 0Z"/>
<path transform="matrix(1,0,0,-1,557.8585,401.2201)" d="M0 0V-6.976H-19.055V23.344H-.391V16.328H-11.651V11.648H-1.775V5.021H-11.651V0Z"/>
<path transform="matrix(1,0,0,-1,595.8591,377.8776)" d="M0 0V-30.317H-6.497L-18.318-12.647V-30.317H-25.769V0H-19.272L-7.448-17.673V0Z"/>
<path transform="matrix(1,0,0,-1,629.2736,384.8923)" d="M0 0H-7.105V-23.304H-14.511V0H-21.613V7.013H0Z"/>
<path transform="matrix(1,0,0,-1,662.9423,399.3156)" d="M0 0C0-4.937-4.289-9.441-11.866-9.441-17.455-9.441-22.738-7.275-24.08-1.646L-17.238 .477C-16.847-1.256-15.245-3.117-11.953-3.117-9.399-3.117-7.493-2.124-7.493-.131-7.493 2.124-10.482 2.47-13.903 3.337-19.967 4.806-22.696 7.621-22.696 12.689-22.696 18.494-17.888 21.957-11.564 21.957-6.368 21.957-1.948 19.186-.779 14.378L-7.624 12.689C-8.012 14.162-9.268 15.633-11.91 15.633-14.076 15.633-15.505 14.467-15.505 12.734-15.505 10.351-11.91 9.787-9.572 9.137-2.166 7.06 0 4.722 0 0"/>
<path transform="matrix(1,0,0,-1,745.7339,362.85853)" d="M0 0C-66.261-67.893-161.026-102.114-254.02-112.395-324.509-119.245-395.823-110.86-464.712-95.62-487.591-90.228-510.238-84.016-532.796-77.403-464.302-93.763-394.941-105.53-324.585-107.471-210.363-110.613-86.186-77.613 0 0"/>
</g>
</g>
</svg>
